<?xml version="1.0" encoding="utf-8"?>
<!-- Generator: Adobe Illustrator 21.0.0, SVG Export Plug-In . SVG Version: 6.00 Build 0)  -->
<svg version="1.1" id="Layer_1" xmlns="http://www.w3.org/2000/svg" xmlns:xlink="http://www.w3.org/1999/xlink" x="0px" y="0px"
	 viewBox="0 0 17.6 16" style="enable-background:new 0 0 17.6 16;" xml:space="preserve">
<style type="text/css">
	.st0{fill:#6E45ED;}
	.st1{fill:#515151;}
</style>
<path d="M6.8,9.2c-0.2,0.7-0.6,1-1.2,1c-0.9-0.1-1.9,0-2.8,0c0.1-0.7,0.4-1,0.9-1C4.7,9.2,5.7,9.2,6.8,9.2z"/>
<path d="M0.9,11.6c0.2-0.3,0.4-0.6,0.6-0.9c0.1-0.1,0.2-0.1,0.3-0.1c1.4,0,2.8,0,4.2,0c0,0,0,0,0.1,0c-0.3,0.6-0.6,1-1.4,0.9
	c-1.1-0.1-2.2,0-3.3,0C1.2,11.6,1.1,11.6,0.9,11.6z"/>
<path class="st1" d="M12,7.7c-0.4,0.7-1.1,1-2.2,1c-1.7-0.1-3.4,0-5.1,0c0.2-0.7,0.8-1,1.7-1C8.3,7.7,10.1,7.7,12,7.7z"/>
<path class="st1" d="M9.7,5.5c0.5,0.8,0.4,1.5-0.1,2.3C8.7,9,7.9,10.3,7,11.6C6.5,11,6.5,10.4,7,9.7C7.9,8.3,8.8,6.9,9.7,5.5z"/>
<path class="st1" d="M15.5,2.8c0.4,1,0.1,1.9-0.7,3.2c-1.3,1.9-2.6,3.9-3.9,5.9c-0.4-0.7-0.3-1.5,0.4-2.6C12.7,7.2,14.1,5,15.5,2.8z
	"/>
<path d="M15.1,2.9c-0.3,0.7-0.8,1-1.5,1c-1.2-0.1-2.4,0-3.6,0c0.2-0.7,0.6-1,1.2-1C12.5,2.9,13.8,2.9,15.1,2.9z"/>
<path d="M16.6,10.6c-0.3,0.7-0.8,1-1.5,1c-1.2-0.1-2.4,0-3.6,0c0.2-0.7,0.6-1,1.2-1C14,10.6,15.3,10.6,16.6,10.6z"/>
</svg>
