<?xml version="1.0" encoding="utf-8"?>
<!-- Generator: Adobe Illustrator 21.0.0, SVG Export Plug-In . SVG Version: 6.00 Build 0)  -->
<svg version="1.1" id="Layer_1" xmlns="http://www.w3.org/2000/svg" xmlns:xlink="http://www.w3.org/1999/xlink" x="0px" y="0px"
	 viewBox="0 0 16 16" style="enable-background:new 0 0 16 16;" xml:space="preserve">
<style type="text/css">
	.st0{fill:#6E45ED;}
	.st1{fill:none;}
	.st2{fill:#DD0707;}
	.st3{font-family:'Rockwell';}
	.st4{font-size:4px;}
</style>
<path d="M15,7.6c-0.3,0.7-0.7,0.9-1.4,0.9c-1.1-0.1-2.1,0-3.2,0c0.2-0.6,0.5-0.9,1.1-0.9C12.6,7.6,13.8,7.6,15,7.6z"/>
<path d="M6.5,9.8c-1.3,0-2.6,0-3.8,0c-0.5,0-0.6-0.5-0.9-0.8c0.1,0,0.2,0,0.3,0c1.1,0,2.2,0,3.3,0C5.8,8.9,6,9,6.2,9.3
	C6.3,9.4,6.4,9.6,6.5,9.8z"/>
<path d="M0.9,7.6c0.8,0,1.6,0,2.4,0c0.3,0,0.6,0,0.9,0c0.7-0.1,1.1,0.3,1.3,0.8c-0.1,0-0.2,0-0.3,0c-1,0-1.9,0-2.9,0
	C1.7,8.5,1.2,8.3,0.9,7.6z"/>
<path d="M9.7,9.8c0.2-0.3,0.4-0.5,0.5-0.8c0-0.1,0.2-0.1,0.2-0.1c1.3,0,2.5,0,3.8,0c0,0,0,0,0.1,0c-0.3,0.5-0.6,0.9-1.2,0.8
	c-1-0.1-2,0-3,0C10,9.8,9.9,9.8,9.7,9.8z"/>
<path d="M5.9,12c0.4-0.7,0.8-1.4,1.2-2c0.1-0.1,0.2-0.1,0.3-0.2c0,0,0.1,0,0.2,0c0.5,0,1.2-0.2,1.5,0.1c0.5,0.5,0.9,1.3,1.3,2.1
	C8.9,12,7.4,12,5.9,12z"/>
<path d="M6.8,6.3c0.2-0.8,0.3-1.7,0.5-2.5c0-0.1,0.2-0.3,0.3-0.3c0.9-0.3,1.8,0,2.4,0.8c0,0.1,0.1,0.1,0.2,0.3c-0.4,0-0.7,0-1,0.1
	c0.1,0.6,0.2,1.1,0.3,1.7C8.4,6.3,7.6,6.3,6.8,6.3z"/>
<path d="M0.1,6.3c0.8,0,1.6,0,2.4,0c0.3,0,0.6,0,0.9,0c0.7-0.1,1.1,0.3,1.3,0.8c-0.1,0-0.2,0-0.3,0c-1,0-1.9,0-2.9,0
	C0.8,7.2,0.4,7,0.1,6.3z"/>
<path d="M15.8,6.3c-0.3,0.7-0.7,0.9-1.4,0.9c-1.1-0.1-2.1,0-3.2,0c0.2-0.6,0.5-0.9,1.1-0.9C13.5,6.3,14.6,6.3,15.8,6.3z"/>
<rect x="6.7" y="6.7" class="st1" width="3.1" height="3.6"/>
<text transform="matrix(1 0 0 1 6.6631 9.4394)" class="st2 st3 st4">H</text>
</svg>
