<?xml version="1.0" encoding="utf-8"?>
<!-- Generator: Adobe Illustrator 21.0.0, SVG Export Plug-In . SVG Version: 6.00 Build 0)  -->
<svg version="1.1" id="Layer_1" xmlns="http://www.w3.org/2000/svg" xmlns:xlink="http://www.w3.org/1999/xlink" x="0px" y="0px"
	 viewBox="0 0 16 15.6" style="enable-background:new 0 0 16 15.6;" xml:space="preserve">
<style type="text/css">
	.st0{fill:#6E45ED;}
	.st1{fill:#4E4E4E;}
	.st2{fill:#898989;}
	.st3{fill:#E0E0E0;}
	.st4{clip-path:url(#SVGID_2_);}
	.st5{clip-path:url(#SVGID_4_);}
	.st6{clip-path:url(#SVGID_6_);}
	.st7{clip-path:url(#SVGID_8_);}
	.st8{clip-path:url(#SVGID_10_);}
	.st9{clip-path:url(#SVGID_12_);}
</style>
<path d="M3.1,8.1c0.1-0.3,0.4-0.5,1-0.5c0,0,0-0.1,0.1-0.1c0.1-0.1,0.1-0.1,0.3-0.1c0.7,0,1.4,0,2.2,0c0,0,0.1,0,0.1,0
	c-1.1,0.8-1.6,1.9-1.6,3.2C5,10.5,5,10.2,4.9,10C4.8,9.6,4.6,9.2,4.4,8.8c-0.3-0.4-0.6-0.6-1-0.7C3.3,8.1,3.2,8.1,3.1,8.1z"/>
<circle class="st3" cx="4.7" cy="8" r="0.4"/>
<g>
	<defs>
		<path id="SVGID_3_" d="M7.7,2.2c-0.1,0-0.1,0-0.2,0c-0.1,0-0.1,0.1-0.1,0.2C7.1,3.1,7.3,3.9,7.2,4.6C7.1,5.1,7,5.5,6.8,5.9
			C6.5,6.5,6.3,7.1,6,7.7C5.8,8.1,5.5,8.5,5.4,9C5.3,9.3,5.3,9.6,5.2,9.9c-0.1,0.6-0.1,1.3-0.1,1.9c0.1,0.6,0.3,1.2,0.7,1.7
			C6.1,12.7,5.9,11.8,6,11c0.1-0.7,0.6-1.4,1-2c0.2-0.3,0.5-0.6,0.8-0.9c0.3-0.3,0.7-0.4,1-0.7c0.4-0.4,0.7-1,0.8-1.6
			c0.1-0.6,0.1-1.2,0-1.8c0-0.2,0-0.4-0.1-0.6C9.5,3,9.2,2.7,8.9,2.6C8.7,2.5,8.6,2.4,8.4,2.3c-0.1-0.1,0-0.1-0.2-0.1
			C8,2.1,7.8,2.2,7.7,2.2z"/>
	</defs>
	<clipPath id="SVGID_2_">
		<use xlink:href="#SVGID_3_"  style="overflow:visible;"/>
	</clipPath>
	<path class="st4" d="M6.1,10.8c0.1-0.2,0.2-0.5,0.3-0.7c0.2-0.5,0.6-0.9,1-1.3C7.8,8.4,8.2,8,8.6,7.7c0.3-0.3,0.6-0.6,0.8-0.9
		C9.8,6.2,10,5.6,10,5c0,0,0,0,0,0c0,0,0,0,0,0c0,0.1,0.1,0.3,0.1,0.4c0.3,1,0.1,1.9-0.5,2.7C9.4,8.4,9,8.8,8.6,9.2
		c-0.5,0.5-1,0.9-1.4,1.4c-0.4,0.5-0.8,1.1-1.1,1.8c-0.1,0.1-0.1,0.3-0.1,0.5c0-0.1-0.1-0.2-0.1-0.2c-0.2-0.5-0.3-1-0.4-1.6
		c-0.1-1,0.1-2,0.8-2.8c0.3-0.3,0.6-0.7,0.9-1C7.7,6.8,8,6.3,8.1,5.7c0.1-0.5,0.2-1,0.1-1.5C8.2,3.7,8,3.1,7.8,2.5c0,0,0,0,0-0.1
		C8,2.6,8.2,2.8,8.4,3C8.7,3.3,9,3.6,9.3,4.1c0.2,0.4,0.3,0.7,0.3,1.2c0,0.4-0.2,0.7-0.4,1C8.9,6.7,8.6,7,8.2,7.4
		C7.8,7.8,7.4,8.2,7,8.7c-0.4,0.4-0.6,0.9-0.8,1.4c-0.1,0.2-0.1,0.4-0.1,0.5C6.1,10.7,6.1,10.8,6.1,10.8z"/>
</g>
<path class="st2" d="M10.4,7.9C10.3,8.4,10,8.6,9.5,8.6c-0.7,0-1.4,0-2.1,0c0.1-0.4,0.3-0.7,0.7-0.7C8.9,7.9,9.7,7.9,10.4,7.9z"/>
<g>
	<defs>
		<path id="SVGID_5_" d="M11.3,3.8c0,0-0.1,0-0.1,0c0,0-0.1,0.1-0.1,0.1c-0.2,0.6-0.1,1.2-0.1,1.8c-0.1,0.4-0.2,0.7-0.3,1
			c-0.2,0.5-0.4,0.9-0.6,1.4C9.8,8.4,9.6,8.8,9.5,9.2C9.4,9.4,9.4,9.6,9.4,9.8c-0.1,0.5-0.1,1-0.1,1.5c0.1,0.5,0.2,1,0.5,1.4
			c0.2-0.6,0.1-1.3,0.2-2c0.1-0.6,0.4-1.1,0.8-1.6c0.2-0.3,0.4-0.5,0.6-0.7c0.2-0.2,0.5-0.4,0.8-0.6c0.4-0.3,0.5-0.8,0.6-1.3
			c0.1-0.5,0.1-1,0-1.5c0-0.1,0-0.3-0.1-0.4c-0.1-0.3-0.3-0.5-0.5-0.6C12.1,4.1,12,4,11.9,3.9c-0.1-0.1,0-0.1-0.2-0.1
			C11.6,3.8,11.4,3.8,11.3,3.8z"/>
	</defs>
	<clipPath id="SVGID_4_">
		<use xlink:href="#SVGID_5_"  style="overflow:visible;"/>
	</clipPath>
	<path class="st5" d="M10.1,10.6c0.1-0.2,0.1-0.4,0.2-0.6c0.2-0.4,0.5-0.7,0.8-1c0.3-0.3,0.6-0.6,1-0.9c0.2-0.2,0.5-0.5,0.7-0.7
		C13,6.9,13.1,6.5,13.1,6c0,0,0,0,0,0c0,0,0,0,0,0c0,0.1,0.1,0.2,0.1,0.3c0.2,0.8,0.1,1.5-0.4,2.1c-0.3,0.4-0.5,0.7-0.9,1
		c-0.4,0.4-0.7,0.7-1.1,1.1c-0.4,0.4-0.6,0.9-0.8,1.4c0,0.1-0.1,0.2-0.1,0.4c0-0.1,0-0.1-0.1-0.2c-0.1-0.4-0.2-0.8-0.3-1.3
		c-0.1-0.8,0.1-1.5,0.6-2.2C10.5,8.3,10.7,8,11,7.7c0.3-0.3,0.5-0.7,0.6-1.1c0.1-0.4,0.1-0.8,0.1-1.2c0-0.5-0.2-0.9-0.3-1.4
		c0,0,0,0,0-0.1c0.1,0.1,0.3,0.3,0.4,0.4c0.3,0.3,0.5,0.5,0.7,0.9c0.2,0.3,0.2,0.6,0.2,0.9c0,0.3-0.1,0.6-0.3,0.8
		c-0.2,0.3-0.5,0.6-0.7,0.9c-0.3,0.3-0.6,0.7-0.9,1c-0.3,0.3-0.5,0.7-0.6,1.1c0,0.1-0.1,0.3-0.1,0.4C10.1,10.5,10.1,10.5,10.1,10.6z
		"/>
</g>
</svg>
