<?xml version="1.0" encoding="utf-8"?>
<!-- Generator: Adobe Illustrator 21.0.0, SVG Export Plug-In . SVG Version: 6.00 Build 0)  -->
<svg version="1.1" id="Layer_1" xmlns="http://www.w3.org/2000/svg" xmlns:xlink="http://www.w3.org/1999/xlink" x="0px" y="0px"
	 viewBox="0 0 80 80" style="enable-background:new 0 0 80 80;" xml:space="preserve">
<style type="text/css">
	.st0{fill:#6E45ED;}
	.st1{fill:#4E4E4E;}
	.st2{fill:#898989;}
	.st3{fill:#E0E0E0;}
	.st4{clip-path:url(#SVGID_2_);}
	.st5{clip-path:url(#SVGID_4_);}
	.st6{clip-path:url(#SVGID_6_);}
	.st7{clip-path:url(#SVGID_8_);}
</style>
<path class="st2" d="M50.1,14.5c2,5.7,0.8,11.4-3.9,18.7c-7.3,11.4-14,23.3-21,35c-2.4-4.2-1.8-9,2-15.3
	C34.7,40.3,42.3,27.6,50.1,14.5z"/>
<g>
	<defs>
		<path id="SVGID_7_" d="M22.6,5.4c-0.5,0-1,0-1.4,0.2c-0.5,0.2-0.7,0.6-0.9,1c-2.1,4.2-0.6,8.9-1.4,13.4c-0.5,2.7-1.8,5.2-3.2,7.6
			c-2,3.4-4.1,6.9-6.3,10.2c-1.8,2.6-3.6,5.2-4.7,8c-0.6,1.7-1,3.5-1.3,5.2c-0.6,3.7-1.1,7.4-0.6,11.1c0.5,3.7,2.1,7.4,5.2,10.3
			c2.3-4.7,0.7-9.9,1.9-14.8c1.1-4.4,4.4-8.3,7.9-11.9c1.8-1.9,3.7-3.7,6.1-5.2c2.4-1.5,5.3-2.7,7.6-4.3c3.5-2.5,5.4-6.1,6.2-9.7
			c0.8-3.6,0.6-7.3,0.3-10.9c-0.1-1.1-0.1-2.3-0.6-3.3c-0.8-2-2.8-3.6-5.3-4.3c-1.6-0.5-2.6-1-3.9-1.7c-1-0.5-0.4-0.5-1.9-0.8
			C25.2,5.2,23.8,5.4,22.6,5.4z"/>
	</defs>
	<clipPath id="SVGID_2_">
		<use xlink:href="#SVGID_7_"  style="overflow:visible;"/>
	</clipPath>
	<path class="st4" d="M10.1,56.4c0.8-1.4,1.5-2.9,2.5-4.3c2-2.9,4.9-5.4,8.1-7.6c3.2-2.2,6.6-4.4,9.9-6.6c2.5-1.7,4.9-3.5,6.9-5.6
		c3-3.2,4.5-6.6,4.4-10.5c0-0.1,0-0.2,0-0.3c0,0,0,0,0.1-0.1c0.4,0.8,0.7,1.5,1,2.3c2.4,5.8,0.9,11-3.8,15.9c-2.6,2.7-5.7,5-8.8,7.3
		c-3.8,2.8-7.7,5.5-11.2,8.5c-3.6,3.1-6.7,6.5-8.6,10.4c-0.4,0.9-0.7,1.8-1.2,2.7c-0.3-0.5-0.5-1-0.7-1.5c-1.4-3.1-2.5-6.2-3-9.4
		c-1-6.1,0.8-11.6,6.5-16.4c2.5-2.1,5.1-4,7.6-6.1c3.1-2.5,5.5-5.3,6.7-8.6c1.1-2.9,1.2-5.8,0.8-8.8c-0.5-3.5-1.6-6.9-3.1-10.2
		c0-0.1-0.1-0.2,0-0.4c1.4,1,2.9,1.9,4.3,2.9c2.8,2,5.4,4.1,7.2,6.7c1.6,2.1,2.4,4.4,2.1,6.9c-0.3,2.2-1.5,4.2-3.1,6.1
		c-2.1,2.4-4.7,4.5-7.4,6.6c-3.2,2.6-6.5,5.1-9.6,7.8c-2.9,2.5-5.2,5.3-6.5,8.4c-0.4,1-0.7,2.1-1,3.2C10.1,55.9,10.1,56.2,10.1,56.4
		z"/>
</g>
<path class="st1" d="M68.1,49.7c-1.7,4.3-4.3,6-8.5,5.8c-6.6-0.4-13.2-0.1-19.8-0.1c1-3.9,3.1-5.7,6.6-5.7
	C53.5,49.7,60.7,49.7,68.1,49.7z"/>
<path d="M40.9,63.5c1.5-2,2.7-3.6,4-5.1c0.3-0.4,1.2-0.6,1.8-0.6c9.1,0,18.2,0,27.2,0c0.1,0,0.3,0.1,0.5,0.3c-1.9,3.4-4.1,5.7-9,5.5
	c-7.2-0.4-14.4-0.1-21.6-0.1C43,63.5,42.2,63.5,40.9,63.5z"/>
<path class="st2" d="M57.1,42.2c-2.4,4.3-6,6-11.9,5.8c-9.2-0.4-18.4-0.1-27.6-0.1c1.4-3.9,4.3-5.7,9.2-5.7
	C36.9,42.2,46.9,42.2,57.1,42.2z"/>
</svg>
