<?xml version="1.0" encoding="utf-8"?>
<!-- Generator: Adobe Illustrator 21.0.0, SVG Export Plug-In . SVG Version: 6.00 Build 0)  -->
<svg version="1.1" id="Layer_1" xmlns="http://www.w3.org/2000/svg" xmlns:xlink="http://www.w3.org/1999/xlink" x="0px" y="0px"
	 viewBox="0 0 16 16.1" style="enable-background:new 0 0 16 16.1;" xml:space="preserve">
<style type="text/css">
	.st0{fill:#6E45ED;}
	.st1{fill:#4E4E4E;}
	.st2{fill:#898989;}
	.st3{clip-path:url(#SVGID_2_);}
	.st4{fill:#E0E0E0;}
	.st5{clip-path:url(#SVGID_4_);}
	.st6{clip-path:url(#SVGID_6_);}
	.st7{clip-path:url(#SVGID_8_);}
	.st8{clip-path:url(#SVGID_10_);}
	.st9{clip-path:url(#SVGID_12_);}
	.st10{clip-path:url(#SVGID_14_);}
</style>
<path class="st2" d="M11.3,4.3c0.4,1,0.1,1.9-0.7,3.2C9.2,9.4,8,11.4,6.7,13.4c-0.4-0.7-0.3-1.5,0.4-2.6C8.5,8.7,9.9,6.5,11.3,4.3z"
	/>
<g>
	<defs>
		<path id="SVGID_13_" d="M6.2,2.8c-0.1,0-0.2,0-0.3,0C5.9,2.8,5.9,2.9,5.8,3C5.4,3.7,5.7,4.5,5.6,5.2C5.5,5.7,5.2,6.1,5,6.5
			C4.6,7.1,4.2,7.7,3.8,8.3C3.5,8.7,3.1,9.1,2.9,9.6c-0.1,0.3-0.2,0.6-0.2,0.9c-0.1,0.6-0.2,1.3-0.1,1.9C2.7,13,3,13.6,3.6,14.1
			c0.4-0.8,0.1-1.7,0.3-2.5c0.2-0.7,0.8-1.4,1.4-2C5.7,9.3,6,9,6.5,8.7c0.4-0.3,1-0.4,1.4-0.7c0.6-0.4,1-1,1.1-1.6s0.1-1.2,0.1-1.8
			C9,4.3,9,4.1,9,3.9C8.8,3.6,8.4,3.3,8,3.2C7.7,3.1,7.5,3,7.3,2.9C7.1,2.8,7.2,2.8,6.9,2.8C6.7,2.8,6.5,2.8,6.2,2.8z"/>
	</defs>
	<clipPath id="SVGID_2_">
		<use xlink:href="#SVGID_13_"  style="overflow:visible;"/>
	</clipPath>
	<path class="st3" d="M3.9,11.4c0.1-0.2,0.3-0.5,0.5-0.7c0.4-0.5,0.9-0.9,1.5-1.3C6.5,9,7.1,8.7,7.7,8.3C8.2,8,8.6,7.7,8.9,7.3
		c0.6-0.5,0.8-1.1,0.8-1.8c0,0,0,0,0,0c0,0,0,0,0,0C9.8,5.6,9.9,5.8,10,5.9c0.4,1,0.2,1.9-0.7,2.7C8.8,9,8.2,9.4,7.6,9.8
		c-0.7,0.5-1.4,0.9-2.1,1.4C4.9,11.8,4.4,12.3,4,13c-0.1,0.1-0.1,0.3-0.2,0.5c0-0.1-0.1-0.2-0.1-0.2c-0.3-0.5-0.5-1-0.6-1.6
		c-0.2-1,0.2-2,1.2-2.8c0.5-0.3,0.9-0.7,1.4-1c0.6-0.4,1-0.9,1.2-1.5c0.2-0.5,0.2-1,0.2-1.5C7,4.3,6.8,3.7,6.5,3.1c0,0,0,0,0-0.1
		c0.3,0.2,0.5,0.3,0.8,0.5c0.5,0.3,1,0.7,1.3,1.1C8.9,5,9.1,5.4,9,5.8C9,6.2,8.8,6.6,8.5,6.9C8.1,7.3,7.6,7.6,7.1,8
		C6.5,8.4,5.9,8.9,5.4,9.3c-0.5,0.4-0.9,0.9-1.2,1.4C4.1,10.9,4,11.1,4,11.3C3.9,11.3,3.9,11.4,3.9,11.4z"/>
</g>
<path d="M0.8,7.1C1,6.8,1.4,6.6,2.2,6.8c0,0,0.1-0.1,0.1-0.1c0.1-0.1,0.2-0.1,0.4-0.1c0.9,0.2,1.9,0.4,2.8,0.7c0,0,0.1,0,0.1,0
	C4,8.1,3,9.3,2.5,11.1c0-0.3,0-0.6,0-0.9c0-0.6-0.1-1.2-0.3-1.7C2,7.9,1.6,7.5,1.1,7.2C1,7.2,0.9,7.2,0.8,7.1z"/>
<circle class="st4" cx="2.7" cy="7.4" r="0.4"/>
<path class="st1" d="M13.4,10.3c-0.2,0.7-0.6,1-1.2,1c-0.9-0.1-1.9,0-2.8,0c0.1-0.7,0.4-1,0.9-1C11.3,10.3,12.4,10.3,13.4,10.3z"/>
<path d="M9.6,12.6c0.2-0.3,0.4-0.6,0.6-0.9c0.1-0.1,0.2-0.1,0.3-0.1c1.4,0,2.8,0,4.2,0c0,0,0,0,0.1,0c-0.3,0.6-0.6,1-1.4,0.9
	c-1.1-0.1-2.2,0-3.3,0C9.9,12.6,9.8,12.6,9.6,12.6z"/>
<path class="st2" d="M12.6,9c-0.4,0.7-1.1,1-2.2,1C8.7,9.9,7,10,5.3,10C5.6,9.3,6.1,9,7,9C8.9,9,10.7,9,12.6,9z"/>
</svg>
