<?xml version="1.0" encoding="utf-8"?>
<!-- Generator: Adobe Illustrator 21.0.0, SVG Export Plug-In . SVG Version: 6.00 Build 0)  -->
<svg version="1.1" id="Layer_1" xmlns="http://www.w3.org/2000/svg" xmlns:xlink="http://www.w3.org/1999/xlink" x="0px" y="0px"
	 viewBox="0 0 16.6 16" style="enable-background:new 0 0 16.6 16;" xml:space="preserve">
<style type="text/css">
	.st0{fill:#6E45ED;}
	.st1{fill:#4E4E4E;}
	.st2{fill:#898989;}
	.st3{fill:#E0E0E0;}
	.st4{clip-path:url(#SVGID_2_);}
	.st5{clip-path:url(#SVGID_4_);}
	.st6{clip-path:url(#SVGID_6_);}
	.st7{clip-path:url(#SVGID_8_);}
	.st8{clip-path:url(#SVGID_10_);}
</style>
<path class="st1" d="M6.2,9.2c-0.2,0.7-0.6,1-1.2,1c-0.9-0.1-1.9,0-2.8,0c0.1-0.7,0.4-1,0.9-1C4.1,9.2,5.2,9.2,6.2,9.2z"/>
<path d="M0.3,11.6c0.2-0.3,0.4-0.6,0.6-0.9c0.1-0.1,0.2-0.1,0.3-0.1c1.4,0,2.8,0,4.2,0c0,0,0,0,0.1,0c-0.3,0.6-0.6,1-1.4,0.9
	c-1.1-0.1-2.2,0-3.3,0C0.6,11.6,0.5,11.6,0.3,11.6z"/>
<path class="st2" d="M11.4,7.7c-0.4,0.7-1.1,1-2.2,1c-1.7-0.1-3.4,0-5.1,0c0.2-0.7,0.8-1,1.7-1C7.7,7.7,9.6,7.7,11.4,7.7z"/>
<path class="st2" d="M9.1,5.5C9.6,6.3,9.6,7,9,7.8C8.1,9,7.3,10.3,6.5,11.6C6,11,5.9,10.4,6.4,9.7C7.3,8.3,8.2,6.9,9.1,5.5z"/>
<path class="st2" d="M14.9,2.8c0.4,1,0.1,1.9-0.7,3.2c-1.3,1.9-2.6,3.9-3.9,5.9c-0.4-0.7-0.3-1.5,0.4-2.6C12.1,7.2,13.5,5,14.9,2.8z
	"/>
<path d="M14.7,2.8c-0.3,0.7-0.8,1-1.5,1c-1.2-0.1-2.4,0-3.6,0c0.2-0.7,0.6-1,1.2-1C12.1,2.8,13.4,2.8,14.7,2.8z"/>
<path d="M15.7,10.9c-0.3,0.7-0.8,1-1.5,1c-1.2-0.1-2.4,0-3.6,0c0.2-0.7,0.6-1,1.2-1C13.1,10.9,14.4,10.9,15.7,10.9z"/>
</svg>
